<?xml version="1.0" standalone="no"?>
<!DOCTYPE svg PUBLIC "-//W3C//DTD SVG 20010904//EN"
 "http://www.w3.org/TR/2001/REC-SVG-20010904/DTD/svg10.dtd">
<svg version="1.0" xmlns="http://www.w3.org/2000/svg"
 width="1024.000000pt" height="1024.000000pt" viewBox="0 0 1024.000000 1024.000000"
 preserveAspectRatio="xMidYMid meet">

<g transform="translate(0.000000,1024.000000) scale(0.100000,-0.100000)"
fill="#000000" stroke="none">
<path d="M2514 6440 c-464 -46 -862 -362 -1008 -800 -46 -139 -59 -225 -59
-385 0 -170 17 -268 75 -422 159 -422 553 -718 1003 -752 367 -28 687 89 941
343 216 217 329 476 341 786 6 166 -8 270 -57 422 -168 524 -685 862 -1236
808z m268 -145 c321 -48 596 -235 754 -512 265 -465 145 -1039 -286 -1365 -90
-69 -246 -144 -365 -175 -87 -23 -120 -26 -255 -27 -179 0 -267 17 -417 82
-525 226 -771 829 -554 1361 110 271 343 492 621 589 73 25 136 39 250 56 60
8 162 5 252 -9z"/>
<path d="M3131 5787 c-22 -11 -146 -138 -558 -572 l-152 -160 -143 142 c-86
85 -154 144 -171 148 -103 26 -191 -81 -143 -173 8 -15 104 -116 213 -224 193
-192 200 -198 240 -198 25 0 51 8 72 23 36 25 738 771 782 831 47 63 35 129
-30 173 -38 26 -74 29 -110 10z"/>
<path d="M7270 5345 l0 -635 113 0 112 0 -3 205 c-2 131 0 205 6 205 6 0 12
-4 14 -9 2 -5 77 -97 168 -205 l165 -196 143 0 144 0 -53 63 c-173 206 -347
423 -347 432 0 6 73 93 161 194 89 102 170 195 180 208 l18 23 -128 0 -128 0
-165 -189 c-91 -104 -168 -190 -173 -190 -4 -1 -6 163 -5 364 l3 365 -112 0
-113 0 0 -635z"/>
<path d="M4310 5810 l0 -110 180 0 180 0 0 -495 0 -495 120 0 120 0 0 495 0
495 180 0 180 0 0 110 0 110 -480 0 -480 0 0 -110z"/>
<path d="M5523 5636 c-195 -63 -334 -296 -307 -516 22 -186 117 -326 270 -397
54 -26 69 -28 174 -28 106 0 119 2 168 28 29 15 71 44 92 64 l40 35 0 -56 0
-56 110 0 110 0 0 460 0 460 -115 0 -115 0 0 -58 0 -59 -39 37 c-22 21 -66 50
-98 66 -49 23 -73 28 -153 31 -61 2 -110 -2 -137 -11z m283 -211 c44 -18 102
-72 127 -119 30 -56 32 -213 3 -266 -51 -96 -128 -144 -231 -144 -109 0 -189
53 -236 159 -27 60 -30 170 -6 226 31 73 108 141 182 160 37 9 119 1 161 -16z"/>
<path d="M6583 5636 c-89 -29 -179 -109 -204 -182 -20 -60 -16 -143 10 -198
42 -86 111 -124 309 -173 152 -38 205 -82 181 -152 -15 -41 -55 -61 -125 -61
-73 0 -139 30 -166 76 l-20 34 -109 0 c-122 0 -119 2 -93 -73 37 -110 165
-201 303 -216 146 -15 268 18 345 95 100 100 113 262 28 356 -49 54 -109 82
-265 124 -144 38 -173 52 -187 90 -15 39 -12 53 19 85 26 25 37 29 88 29 70 0
120 -23 148 -67 l20 -32 108 -1 107 0 0 28 c0 43 -43 124 -85 161 -73 64 -136
85 -260 88 -72 2 -124 -2 -152 -11z"/>
<path d="M8393 5636 c-58 -19 -105 -50 -147 -96 -54 -60 -68 -102 -64 -191 2
-63 8 -83 31 -118 49 -74 104 -100 337 -162 60 -16 93 -31 113 -50 37 -37 36
-81 -2 -120 -27 -26 -36 -29 -98 -29 -80 0 -136 26 -168 77 l-20 32 -112 1
-112 0 6 -32 c16 -90 90 -176 192 -224 102 -49 285 -48 383 1 72 36 105 69
139 140 45 94 38 197 -18 272 -42 58 -113 89 -323 144 -134 35 -175 95 -111
160 26 25 37 29 86 29 71 0 122 -23 147 -67 l20 -33 108 0 109 0 -6 38 c-13
90 -80 169 -180 214 -60 28 -243 36 -310 14z"/>
</g>
</svg>
